<svg xmlns="http://www.w3.org/2000/svg" width="512" height="512" fill="none" viewBox="0 0 512 512">
  <path fill="#27AE60" d="M142.202 210.163c8.643-13.805 19.021-26.924 31.119-39.022 60.923-60.924 147.748-78.235 217.712-50.075 28.16 69.964 10.848 156.788-50.075 217.712-12.099 12.098-25.216 22.476-39.021 31.12l2.687 45.691a8.469 8.469 0 0 1-6.4 8.711l-78.461 19.615a8.466 8.466 0 0 1-10.52-8.214v-53.987c0-4.49-1.784-8.798-4.96-11.974l-61.924-61.924a16.935 16.935 0 0 0-11.974-4.96H76.399a8.466 8.466 0 0 1-8.215-10.52L87.8 213.875a8.467 8.467 0 0 1 8.712-6.399l45.691 2.687Zm114.937 44.796c13.227 13.226 34.67 13.226 47.897 0 13.226-13.226 13.226-34.669-.001-47.896-13.225-13.225-34.67-13.226-47.896-.001-13.226 13.227-13.225 34.671 0 47.897Z"/>
</svg>
